<?xml version="1.0" encoding="UTF-8"?>
<svg xmlns="http://www.w3.org/2000/svg" viewBox="0 0 512 512" fill="none" role="img" aria-label="Fandez">
  <!-- Tile app: fondo ámbar + ventosa (sopapo→∞) relleno — legible en notificaciones -->
  <rect width="512" height="512" rx="112" fill="#C45C14"/>
  <!-- Isotipo más grande y relleno blanco (evita lectura “planeta/Saturno” del contorno fino) -->
  <g transform="translate(256, 268) rotate(-38) scale(2.05) translate(-60, -71)">
    <path
      fill="#FFFFFF"
      stroke="#FFFFFF"
      stroke-width="6"
      stroke-linejoin="round"
      stroke-linecap="round"
      d="M60 22 C78 22 92 34 94 50 C95 58 92 66 84 70 C98 74 108 84 108 96 C108 112 86 122 60 122 C34 122 12 112 12 96 C12 84 22 74 36 70 C28 66 25 58 26 50 C28 34 42 22 60 22 Z"
    />
    <!-- Hueco interior para que se lea como 2 ventosas / ∞, no como peón -->
    <path
      fill="#C45C14"
      d="M60 40 C72 40 82 48 83 58 C84 64 81 70 74 73 C86 76 94 85 94 96 C94 108 78 116 60 116 C42 116 26 108 26 96 C26 85 34 76 46 73 C39 70 36 64 37 58 C38 48 48 40 60 40 Z"
    />
  </g>
</svg>
